<?xml version="1.0" standalone="no"?>
<!DOCTYPE svg PUBLIC "-//W3C//DTD SVG 20010904//EN" "http://www.w3.org/TR/2001/REC-SVG-20010904/DTD/svg10.dtd">
<svg version="1.0" xmlns="http://www.w3.org/2000/svg" width="512.000000pt" height="512.000000pt" viewBox="0 0 512.000000 512.000000" preserveAspectRatio="xMidYMid meet">
	<g transform="translate(0.000000,512.000000) scale(0.100000,-0.100000)" fill="#000000" stroke="none">
		<path d="M26 4529 l-26 -20 0 -260 c0 -246 1 -260 20 -279 11 -11 31 -20 45
-20 14 0 34 9 45 20 19 19 20 33 20 235 l0 215 65 0 65 0 0 -100 c0 -94 2
-103 25 -125 23 -24 28 -25 175 -25 147 0 152 1 175 25 23 22 25 31 25 125 l0
101 63 -3 62 -3 5 -108 c4 -93 8 -111 24 -123 28 -20 314 -20 342 0 16 12 20
30 24 123 l5 108 63 3 62 3 0 -544 c0 -536 0 -545 21 -571 25 -32 68 -35 95
-5 18 20 19 45 19 616 l0 595 -24 19 c-20 17 -40 19 -173 19 -145 0 -150 -1
-173 -25 -23 -22 -25 -31 -25 -125 l0 -100 -65 0 -65 0 0 104 c0 101 -1 105
-26 125 -24 19 -40 21 -174 21 -193 0 -189 3 -192 -140 l-3 -105 -65 0 -65 0
-5 108 c-4 93 -8 111 -24 123 -15 11 -56 14 -167 14 -133 0 -149 -2 -173 -21z" />
		<path d="M2090 4390 c-20 -20 -20 -33 -20 -730 0 -697 0 -710 20 -730 25 -25
51 -25 81 -1 22 18 24 29 29 130 l5 111 50 -67 c137 -187 467 -473 545 -473
35 0 60 29 60 68 0 28 -9 37 -87 91 -187 128 -342 285 -471 476 l-61 90 190 5
c174 5 192 7 205 24 19 27 18 70 -4 89 -14 13 -39 17 -105 17 l-87 0 0 123 c0
111 2 126 20 142 17 15 24 16 45 7 22 -10 25 -18 25 -62 0 -76 21 -110 71
-110 44 0 59 28 59 109 0 92 -23 140 -83 176 -73 42 -162 30 -219 -31 -41 -45
-48 -75 -48 -220 l0 -134 -55 0 -55 0 0 395 0 395 49 0 49 0 4 -70 c6 -104 7
-105 184 -105 141 0 146 1 165 24 14 17 19 39 19 87 l0 64 50 0 50 0 0 -432 0
-433 35 -58 c134 -223 358 -428 599 -549 111 -56 204 -90 227 -83 30 10 49 34
49 64 0 36 -20 52 -105 85 -248 97 -476 280 -626 504 l-49 74 0 463 0 464 -22
15 c-18 13 -52 16 -160 16 -170 0 -178 -4 -178 -105 l0 -65 -55 0 -55 0 0 69
c0 98 -6 101 -182 101 -125 0 -140 -2 -158 -20z" />
		<path d="M4305 4045 l-25 -24 0 -470 c0 -536 6 -495 -95 -646 -64 -96 -162
-193 -267 -264 -72 -47 -78 -54 -78 -86 0 -37 28 -65 65 -65 35 0 176 100 260
185 86 85 171 206 207 293 l22 52 288 0 c158 0 288 -2 288 -4 0 -15 -68 -193
-96 -251 -110 -230 -310 -422 -539 -519 -344 -144 -841 -142 -1260 4 -86 30
-328 140 -322 146 2 2 50 -5 107 -16 210 -37 473 -52 551 -30 43 12 63 47 49
84 -5 13 -13 27 -19 31 -6 3 -93 8 -193 10 -272 5 -483 44 -792 146 -148 49
-227 83 -455 198 -405 203 -548 263 -734 307 -62 15 -145 18 -605 21 l-532 4
0 295 c0 281 -1 295 -20 314 -26 26 -64 26 -90 0 -20 -20 -20 -33 -20 -755 0
-454 4 -773 11 -833 67 -610 433 -1139 978 -1411 188 -95 365 -149 568 -176
97 -13 332 -15 1554 -15 1426 0 1439 0 1459 20 27 27 25 62 -3 88 -23 22 -26
22 -443 22 l-419 1 95 34 c209 76 465 221 645 366 295 237 573 617 647 884 23
80 23 83 26 1059 l3 979 -22 24 c-21 22 -29 23 -160 23 -172 0 -181 -5 -187
-104 l-4 -66 -49 0 -49 0 0 63 c0 53 -4 67 -23 85 -22 20 -33 22 -161 22 -132
0 -138 -1 -161 -25z m215 -172 c0 -102 2 -103 179 -103 80 0 153 5 161 10 10
6 17 32 20 82 l5 73 53 3 52 3 0 -395 0 -396 -55 0 -55 0 0 135 c0 154 -8 184
-63 232 -84 74 -221 48 -274 -50 -14 -25 -18 -64 -21 -175 l-4 -143 -51 3 -52
3 -3 380 c-1 209 0 386 3 392 3 8 24 13 55 13 l50 0 0 -67z m214 -459 c13 -12
16 -40 16 -140 l0 -124 -45 0 -45 0 0 128 c0 132 6 152 41 152 10 0 25 -7 33
-16z m-3547 -409 c172 -28 337 -92 686 -267 222 -110 399 -208 635 -350 376
-225 649 -328 985 -369 147 -18 464 -7 601 20 389 78 659 261 848 574 l49 82
-4 -310 c-3 -255 -7 -321 -21 -370 -58 -199 -239 -469 -462 -686 -341 -331
-757 -526 -1294 -605 -97 -14 -224 -18 -800 -21 -488 -3 -716 -1 -794 7 -782
85 -1389 696 -1475 1482 -6 54 -11 262 -11 463 l0 365 483 0 c379 0 502 -3
574 -15z" />
		<path d="M436 2539 c-29 -23 -33 -54 -10 -87 15 -22 17 -22 314 -22 l298 0 4
-81 c4 -88 17 -109 67 -109 48 0 56 13 61 102 l5 83 115 3 c125 3 150 13 150
61 -1 71 -2 71 -518 71 -450 0 -460 0 -486 -21z" />
		<path d="M646 2088 c-22 -32 -20 -55 9 -84 l25 -25 521 3 c502 3 521 4 535 22
19 27 18 70 -4 89 -17 15 -69 17 -545 17 l-526 0 -15 -22z" />
		<path d="M2014 2102 c-23 -15 -34 -50 -24 -77 13 -35 52 -47 138 -43 81 4 102
18 102 68 0 47 -27 60 -121 60 -46 0 -89 -4 -95 -8z" />
		<path d="M2116 1804 c-24 -24 -28 -51 -24 -192 3 -144 15 -172 68 -172 52 0
65 29 68 162 4 134 -1 180 -24 203 -20 20 -68 19 -88 -1z" />
		<path d="M1210 1718 c-36 -13 -40 -24 -40 -130 l0 -98 -110 0 c-97 0 -112 -2
-130 -20 -11 -11 -20 -31 -20 -45 0 -14 9 -34 20 -45 19 -19 33 -20 420 -20
398 0 399 0 420 22 25 28 25 48 -1 82 l-20 26 -225 0 -224 0 0 88 c0 121 -27
163 -90 140z" />
		<path d="M2867 1650 c-45 -35 -32 -91 25 -108 18 -6 62 -15 98 -22 l65 -11 -3
-70 c-4 -80 11 -109 58 -109 48 0 64 22 70 92 l5 63 40 -1 c22 -1 106 -5 186
-9 l145 -8 22 28 c28 35 28 48 0 78 -22 23 -33 25 -198 36 -150 9 -345 34
-455 56 -22 5 -37 1 -58 -15z" />
		<path d="M3910 1635 c-74 -23 -93 -75 -43 -115 29 -22 66 -22 119 2 45 21 44
95 -1 116 -14 7 -27 12 -28 11 -1 0 -22 -7 -47 -14z" />
		<path d="M2847 1160 c-310 -5 -329 -6 -343 -24 -21 -29 -17 -54 11 -82 l25
-25 349 3 c327 3 350 4 370 22 45 41 5 119 -58 114 -14 -1 -174 -5 -354 -8z" />
		<path d="M655 3920 c-45 -14 -105 -69 -126 -114 -15 -34 -19 -67 -19 -192 0
-134 2 -153 18 -167 16 -15 45 -17 195 -17 233 0 220 -12 215 193 -3 145 -4
154 -31 199 -48 83 -161 126 -252 98z m122 -144 c26 -23 28 -29 31 -120 l4
-96 -86 0 -86 0 0 93 c1 94 7 113 45 135 31 18 62 14 92 -12z" />
		<path d="M3131 3463 c-24 -30 -20 -58 11 -85 19 -17 56 -18 460 -18 l439 0 24
25 c14 13 25 29 25 35 0 16 -21 53 -34 62 -6 4 -212 8 -458 8 l-447 0 -20 -27z" />
		<path d="M3610 2500 c-27 -27 -25 -62 5 -90 22 -21 30 -22 62 -14 47 11 71 51
52 86 -7 13 -17 26 -23 30 -22 15 -76 8 -96 -12z" />
		<path d="M4851 674 c-12 -15 -21 -32 -21 -39 0 -7 9 -24 21 -39 18 -23 27 -26
85 -26 71 0 104 20 104 63 0 43 -39 67 -107 67 -55 0 -64 -3 -82 -26z" />
	</g>
</svg>
