<?xml version="1.0" standalone="no"?>
<!DOCTYPE svg PUBLIC "-//W3C//DTD SVG 20010904//EN" "http://www.w3.org/TR/2001/REC-SVG-20010904/DTD/svg10.dtd">
<svg version="1.0" xmlns="http://www.w3.org/2000/svg" width="512.000000pt" height="512.000000pt" viewBox="0 0 512.000000 512.000000" preserveAspectRatio="xMidYMid meet">
	<g transform="translate(0.000000,512.000000) scale(0.100000,-0.100000)" fill="#000000" stroke="none">
		<path d="M1113 4296 c-65 -21 -124 -59 -177 -115 -59 -64 -95 -141 -107 -229
-6 -40 -8 -668 -7 -1537 3 -1348 4 -1472 20 -1500 22 -40 66 -81 101 -94 19
-7 218 -11 590 -11 631 0 599 -4 662 74 l30 38 3 433 3 432 82 5 c45 3 98 12
118 21 54 22 110 76 135 132 24 50 24 53 23 425 0 403 -1 417 -53 485 -15 19
-48 47 -74 62 -39 23 -62 29 -137 33 l-90 5 -3 258 -2 257 37 0 c85 0 155 39
191 104 13 25 17 57 17 161 0 120 -2 133 -25 175 -34 61 -87 90 -165 90 l-61
0 -13 38 c-35 98 -123 195 -219 240 l-57 27 -390 2 c-303 2 -399 -1 -432 -11z
m797 -132 c39 -12 66 -29 106 -68 78 -79 84 -106 84 -408 l0 -248 -570 0 -570
0 0 255 c0 232 2 259 21 309 25 68 100 139 168 160 71 22 687 22 761 0z m414
-310 c20 -20 23 -213 4 -232 -7 -7 -31 -12 -55 -12 l-43 0 0 130 0 130 39 0
c23 0 46 -7 55 -16z m-224 -1704 l0 -880 -570 0 -570 0 0 155 0 155 168 0
c157 0 172 2 213 23 24 13 58 43 74 66 l30 43 3 416 c3 469 3 472 -68 536 -53
48 -91 56 -267 56 l-153 0 0 155 0 155 570 0 570 0 0 -880z m289 652 c69 -35
71 -46 71 -425 0 -374 -2 -390 -62 -427 -24 -15 -50 -20 -100 -20 l-68 0 0
445 0 445 63 0 c39 0 74 -6 96 -18z m-289 -1742 c0 -131 53 -120 -568 -120
-461 0 -530 2 -550 16 -20 14 -22 24 -22 100 l0 84 570 0 570 0 0 -80z" />
		<path d="M569 3181 c-24 -19 -24 -21 -24 -229 0 -192 2 -212 19 -231 24 -27
70 -27 96 -1 19 19 20 33 20 228 0 205 0 209 -23 230 -29 27 -57 28 -88 3z" />
		<path d="M3260 2838 c-61 -46 -93 -111 -92 -190 0 -76 16 -118 71 -180 51 -58
56 -105 15 -143 -15 -14 -31 -25 -35 -25 -18 0 -49 -41 -49 -65 0 -33 33 -65
68 -65 41 0 118 55 147 104 51 87 42 187 -24 259 -21 23 -43 52 -50 64 -26 50
-6 112 46 144 64 40 52 121 -18 127 -28 2 -46 -4 -79 -30z" />
		<path d="M3614 2851 c-69 -42 -114 -124 -114 -207 0 -66 18 -109 71 -169 46
-53 50 -62 45 -94 -3 -23 -15 -44 -31 -56 -52 -39 -85 -74 -85 -88 0 -26 40
-67 66 -67 33 0 93 32 126 67 37 39 58 93 58 153 0 64 -18 108 -68 162 -63 68
-61 122 8 188 28 27 50 55 50 63 0 8 -9 26 -21 41 -25 31 -61 34 -105 7z" />
		<path d="M3930 2838 c-61 -46 -93 -111 -92 -190 0 -77 18 -123 71 -181 64 -69
54 -129 -29 -172 -60 -31 -47 -117 18 -123 24 -2 47 6 83 29 119 76 143 231
50 332 -21 23 -43 52 -50 64 -26 50 -6 112 46 144 64 40 52 121 -18 127 -28 2
-46 -4 -79 -30z" />
		<path d="M574 2532 c-31 -20 -34 -54 -34 -382 0 -382 1 -389 77 -390 62 0 63
5 63 390 0 385 -1 390 -63 390 -18 0 -37 -4 -43 -8z" />
		<path d="M2949 2041 l-24 -19 0 -484 0 -483 33 -67 c33 -68 80 -116 152 -154
33 -18 68 -19 503 -22 l469 -3 56 26 c92 42 155 114 178 205 l11 45 67 7 c102
10 156 54 177 143 6 30 10 113 7 210 -3 145 -5 164 -26 200 -34 60 -79 86
-157 93 l-65 5 0 132 c0 119 -2 135 -21 159 l-20 26 -659 0 c-633 0 -659 -1
-681 -19z m1239 -664 l-3 -324 -29 -37 c-57 -75 -58 -76 -530 -76 -407 0 -421
1 -464 21 -26 13 -54 38 -70 62 l-27 40 -3 319 -3 318 566 0 566 0 -3 -323z
m240 211 c17 -17 17 -329 0 -346 -7 -7 -31 -12 -55 -12 l-43 0 0 185 0 185 43
0 c24 0 48 -5 55 -12z" />
		<path d="M2700 1860 c-19 -19 -20 -33 -20 -259 0 -204 2 -242 16 -255 26 -27
71 -24 97 6 15 18 17 46 17 253 l0 234 -26 20 c-33 26 -58 27 -84 1z" />
		<path d="M569 1621 c-20 -16 -24 -28 -24 -76 0 -48 4 -60 24 -76 54 -44 111
-3 111 81 0 77 -58 114 -111 71z" />
		<path d="M2702 1194 c-19 -13 -22 -24 -22 -79 0 -55 3 -66 22 -79 58 -41 108
-4 108 77 0 43 -5 58 -23 75 -27 26 -54 28 -85 6z" />
	</g>
</svg>
